<svg width="47" height="45" viewBox="0 0 47 45" fill="none" xmlns="http://www.w3.org/2000/svg">
<rect x="0.5" y="0.5" width="46" height="44" rx="22" fill="#EFF3FF"/>
<rect x="0.5" y="0.5" width="46" height="44" rx="22" stroke="#4167F2"/>
<path d="M18.8998 19.8555L15.7264 22.5L18.8998 25.1446C18.9647 25.1965 19.0186 25.2608 19.0583 25.3339C19.098 25.4069 19.1227 25.4871 19.1311 25.5697C19.1394 25.6524 19.1312 25.7359 19.1068 25.8154C19.0825 25.8949 19.0426 25.9687 18.9894 26.0325C18.9362 26.0964 18.8708 26.149 18.797 26.1873C18.7233 26.2255 18.6426 26.2487 18.5598 26.2554C18.4769 26.2621 18.3936 26.2523 18.3146 26.2264C18.2356 26.2005 18.1626 26.1591 18.0998 26.1047L14.3498 22.9797C14.2794 22.9211 14.2228 22.8476 14.184 22.7647C14.1451 22.6817 14.125 22.5912 14.125 22.4996C14.125 22.408 14.1451 22.3175 14.184 22.2346C14.2228 22.1516 14.2794 22.0782 14.3498 22.0196L18.0998 18.8946C18.2272 18.7885 18.3916 18.7373 18.5567 18.7524C18.7218 18.7675 18.8742 18.8476 18.9803 18.975C19.0864 19.1024 19.1375 19.2668 19.1224 19.4319C19.1073 19.597 19.0272 19.7494 18.8998 19.8555ZM32.6498 22.0196L28.8998 18.8946C28.8367 18.842 28.7639 18.8024 28.6855 18.7781C28.6071 18.7537 28.5247 18.745 28.4429 18.7524C28.3612 18.7599 28.2817 18.7834 28.209 18.8216C28.1363 18.8598 28.0719 18.9119 28.0193 18.975C27.9133 19.1024 27.8621 19.2668 27.8772 19.4319C27.8923 19.597 27.9724 19.7494 28.0998 19.8555L31.2733 22.5L28.0998 25.1446C28.0349 25.1965 27.9811 25.2608 27.9414 25.3339C27.9016 25.4069 27.8769 25.4871 27.8686 25.5697C27.8602 25.6524 27.8685 25.7359 27.8928 25.8154C27.9171 25.8949 27.957 25.9687 28.0102 26.0325C28.0634 26.0964 28.1288 26.149 28.2026 26.1873C28.2764 26.2255 28.357 26.2487 28.4399 26.2554C28.5227 26.2621 28.606 26.2523 28.685 26.2264C28.764 26.2005 28.837 26.1591 28.8998 26.1047L32.6498 22.9797C32.7202 22.9211 32.7768 22.8476 32.8156 22.7647C32.8545 22.6817 32.8746 22.5912 32.8746 22.4996C32.8746 22.408 32.8545 22.3175 32.8156 22.2346C32.7768 22.1516 32.7202 22.0782 32.6498 22.0196ZM26.2131 15.0375C26.1359 15.0095 26.054 14.997 25.972 15.0006C25.89 15.0043 25.8096 15.024 25.7352 15.0588C25.6608 15.0935 25.5941 15.1426 25.5386 15.2031C25.4832 15.2637 25.4403 15.3346 25.4123 15.4117L20.4123 29.1617C20.3842 29.2389 20.3715 29.3209 20.3751 29.403C20.3787 29.4851 20.3985 29.5657 20.4332 29.6401C20.468 29.7146 20.5171 29.7814 20.5777 29.8369C20.6383 29.8923 20.7093 29.9353 20.7865 29.9633C20.855 29.9877 20.9271 30.0001 20.9998 30C21.1282 30 21.2534 29.9605 21.3585 29.8868C21.4636 29.8132 21.5435 29.7089 21.5873 29.5883L26.5873 15.8383C26.6153 15.7612 26.6279 15.6792 26.6242 15.5972C26.6206 15.5152 26.6008 15.4348 26.5661 15.3604C26.5313 15.286 26.4823 15.2193 26.4217 15.1639C26.3611 15.1085 26.2902 15.0655 26.2131 15.0375Z" fill="#4167F2"/>
</svg>
